<?xml version="1.0" encoding="utf-8"?>
<!-- Generator: Adobe Illustrator 24.0.1, SVG Export Plug-In . SVG Version: 6.00 Build 0)  -->
<svg version="1.1" id="Layer_1" xmlns="http://www.w3.org/2000/svg" xmlns:xlink="http://www.w3.org/1999/xlink" x="0px" y="0px"
	 viewBox="0 0 182.1 234.5" style="enable-background:new 0 0 182.1 234.5;" xml:space="preserve">
<style type="text/css">
	.st0{fill-rule:evenodd;clip-rule:evenodd;fill:#AF00FA;}
	.st1{fill-rule:evenodd;clip-rule:evenodd;fill:#9700FF;}
	.st2{fill-rule:evenodd;clip-rule:evenodd;fill:url(#SVGID_1_);}
	.st3{fill:#FFFFFF;}
</style>
<g transform="matrix(.47195 0 0 .47195 -266.98 458.84)">
	<path class="st0" d="M565.7-636.4v-299.5c0-20.1,16.3-36.3,36.3-36.3h199.8l149.7,149.7V-606H565.7L565.7-636.4L565.7-636.4z"/>
	<g transform="matrix(1 0 0 .87323 -2.0464e-12 160.45)">
		<path class="st1" d="M951.5-877.7v116c0,18.6-16.3,33.7-36.3,33.7H602c-20.1,0-36.3-15.1-36.3-33.7v-116L951.5-877.7L951.5-877.7z
			"/>
	</g>
	<g transform="translate(3.2597 -1.5916e-12)">
		
			<linearGradient id="SVGID_1_" gradientUnits="userSpaceOnUse" x1="130.3083" y1="170.3403" x2="131.3083" y2="170.3403" gradientTransform="matrix(63.0654 62.0459 62.0459 -63.0654 -17941.4824 1797.4712)">
			<stop  offset="0" style="stop-color:#212121;stop-opacity:0.6157"/>
			<stop  offset="1" style="stop-color:#4D4D4D;stop-opacity:0"/>
		</linearGradient>
		<path class="st2" d="M798.5-972.2L798.5-972.2l149.8,149.7v125.2c-1.1,0.5-1.9,0.5-2.7-0.2c-7.1-7.1-140.4-131.2-140.4-141.2
			C805.2-882.8,798.6-971.2,798.5-972.2L798.5-972.2z"/>
	</g>
	<g transform="translate(3.2597 -1.5348e-12)">
		<path class="st1" d="M798.5-972.2L798.5-972.2l149.8,149.7h-112c-10,0-19.6-4-26.7-11.1c-7.1-7.1-11.1-16.7-11.1-26.7L798.5-972.2
			L798.5-972.2z"/>
	</g>
	<g transform="translate(0 44.289)">
		<path class="st3" d="M726-624.7h20.2v48.2c0,5.2-0.3,9.3-1,12.1c-0.7,2.8-1.8,5.3-3.3,7.5c-2.1,2.8-4.6,4.9-7.6,6.4
			c-3,1.4-6.4,2.2-10.2,2.2c-4.7,0-8.8-1-12.5-3c-3.7-2-6.8-5-9.4-8.9l12.4-11.2c0.3,2.2,1,3.9,2.1,5.1c1.1,1.2,2.5,1.8,4.2,1.8
			c1.9,0,3.3-1.1,4-3.2c0.7-2.1,1.1-7.5,1.1-16V-624.7L726-624.7z"/>
		<path class="st3" d="M764.5-574.4c3,3.4,6,6,8.9,7.7c2.9,1.7,5.9,2.5,8.8,2.5c2.7,0,4.9-0.7,6.7-2.2c1.7-1.5,2.6-3.3,2.6-5.5
			c0-2.5-0.8-4.4-2.3-5.7c-1.5-1.3-4.9-2.7-10.2-4.1c-7.3-2-12.4-4.5-15.4-7.7c-3-3.1-4.5-7.5-4.5-13c0-7.1,2.4-12.9,7.1-17.4
			c4.8-4.5,10.9-6.7,18.5-6.7c4.1,0,8,0.6,11.7,1.7c3.7,1.1,7.1,2.8,10.4,5l-6.4,14.6c-2.3-2-4.7-3.4-7.1-4.4
			c-2.4-1-4.8-1.5-7.2-1.5c-2.4,0-4.4,0.6-5.9,1.8c-1.5,1.2-2.3,2.7-2.3,4.5c0,1.9,0.7,3.4,2,4.5c1.3,1.1,3.9,2.2,7.7,3.2l0.9,0.3
			c8.3,2.2,13.7,4.7,16.3,7.4c1.8,1.8,3.1,4,4,6.6c0.9,2.6,1.4,5.4,1.4,8.5c0,7.9-2.6,14.2-7.8,19c-5.2,4.8-12.1,7.2-20.7,7.2
			c-5.2,0-9.9-0.9-14.1-2.6c-4.2-1.8-8.3-4.5-12.3-8.3L764.5-574.4L764.5-574.4z"/>
	</g>
	<g transform="matrix(1.2532 0 0 1.2532 685.92 -175.52)">
		<path class="st3" d="M13.4-504.8h35.5v84.7c0,9.2-0.6,16.3-1.8,21.2s-3.1,9.3-5.9,13.1c-3.6,4.9-8.1,8.7-13.4,11.2
			c-5.3,2.5-11.2,3.8-17.8,3.8c-8.2,0-15.5-1.8-21.9-5.3c-6.4-3.5-11.9-8.7-16.5-15.6l21.7-19.7c0.5,3.9,1.8,6.8,3.7,8.9
			c2,2.1,4.4,3.1,7.4,3.1c3.4,0,5.7-1.9,7-5.6c1.3-3.7,1.9-13.1,1.9-28.1L13.4-504.8L13.4-504.8z"/>
		<path class="st3" d="M64.6-381.8l6.6-24.2c4.6,4,9.7,7.1,15.3,9.3c5.6,2.2,11.2,3.3,16.8,3.3c4,0,7-0.6,9.1-1.9
			c2.1-1.3,3.1-3.1,3.1-5.6c0-4-4.2-7-12.6-8.9c-2.7-0.7-4.9-1.2-6.6-1.7c-9.5-2.6-16.4-6-20.7-10.3c-4.3-4.2-6.5-9.8-6.5-16.5
			c0-8.7,3.3-15.7,9.8-20.9c6.6-5.2,15.5-7.8,26.7-7.8c5.8,0,11.6,0.7,17.6,2c6,1.3,12.1,3.4,18.3,6.2l-6.6,21.8
			c-4.2-2.9-8.5-5-12.8-6.5c-4.3-1.5-8.7-2.2-13-2.2c-3.6,0-6.4,0.6-8.2,1.7c-1.8,1.1-2.8,2.8-2.8,4.9c0,3.2,4.2,5.9,12.5,8.1
			c1.9,0.5,3.3,0.9,4.3,1.2c11,3.1,18.6,6.8,23,11.1c4.3,4.2,6.5,10,6.5,17.2c0,9.2-3.5,16.7-10.6,22.3c-7.1,5.7-16.4,8.5-28.1,8.5
			c-7.9,0-15.2-0.9-22-2.7C76.9-375.4,70.6-378.1,64.6-381.8L64.6-381.8z"/>
	</g>
</g>
</svg>
