<?xml version="1.0" encoding="utf-8"?>
<!-- Generator: Adobe Illustrator 24.0.1, SVG Export Plug-In . SVG Version: 6.00 Build 0)  -->
<svg version="1.1" id="Layer_1" xmlns="http://www.w3.org/2000/svg" xmlns:xlink="http://www.w3.org/1999/xlink" x="0px" y="0px"
	 viewBox="0 0 182.1 234.5" style="enable-background:new 0 0 182.1 234.5;" xml:space="preserve">
<style type="text/css">
	.st0{fill-rule:evenodd;clip-rule:evenodd;fill:#C12906;}
	.st1{fill-rule:evenodd;clip-rule:evenodd;fill:#9B0D0A;}
	.st2{fill-rule:evenodd;clip-rule:evenodd;fill:url(#SVGID_1_);}
	.st3{fill:#FFFFFF;}
</style>
<g transform="matrix(.47195 0 0 .47195 1410.5 -69.791)">
	<path class="st0" d="M-2988.7,483.7V184.2c0-20.1,16.3-36.3,36.3-36.3h199.8l149.7,149.7v216.5h-385.8L-2988.7,483.7L-2988.7,483.7
		z"/>
	<g transform="matrix(1 0 0 .87323 -2.0464e-12 160.45)">
		<path class="st1" d="M-2602.8,405v116c0,18.6-16.3,33.7-36.3,33.7h-313.2c-20.1,0-36.3-15.1-36.3-33.7V405L-2602.8,405
			L-2602.8,405z"/>
	</g>
	<g transform="translate(3.2597 -1.5916e-12)">
		
			<linearGradient id="SVGID_1_" gradientUnits="userSpaceOnUse" x1="-3433.5361" y1="1272.5833" x2="-3432.5361" y2="1272.5833" gradientTransform="matrix(63.0654 62.0459 62.0459 -63.0654 134869.5781 293553)">
			<stop  offset="0" style="stop-color:#212121;stop-opacity:0.6157"/>
			<stop  offset="1" style="stop-color:#4D4D4D;stop-opacity:0"/>
		</linearGradient>
		<path class="st2" d="M-2755.9,147.9L-2755.9,147.9l149.8,149.7v125.2c-1.1,0.5-1.9,0.5-2.7-0.2c-7.1-7.1-140.4-131.2-140.4-141.2
			C-2749.1,237.3-2755.8,148.9-2755.9,147.9L-2755.9,147.9z"/>
	</g>
	<g transform="translate(3.2597 -1.5348e-12)">
		<path class="st1" d="M-2755.9,147.9L-2755.9,147.9l149.8,149.7h-112c-10,0-19.6-4-26.7-11.1c-7.1-7.1-11.1-16.7-11.1-26.7
			L-2755.9,147.9L-2755.9,147.9z"/>
	</g>
	<g transform="translate(0 44.289)">
		<path class="st3" d="M-2934,569.8v-74.3h20.3v28.9h27v-28.9h20.3v74.3h-20.3v-30.3h-27v30.3H-2934z"/>
		<path class="st3" d="M-2839.9,569.8V513h-16.7v-17.6h53.6V513h-16.7v56.8H-2839.9L-2839.9,569.8z"/>
		<path class="st3" d="M-2707.8,569.8h-18.9l-4.4-32.1c-0.3-2.3-0.6-4.8-0.8-7.6c-0.3-2.8-0.5-5.8-0.7-9.1
			c-0.5,3.1-1.4,7.1-2.8,11.8c-0.3,1-0.5,1.7-0.7,2.2l-10.1,34.8h-13.5l-10.1-34.8c-0.1-0.5-0.3-1.2-0.6-2.2
			c-1.4-4.7-2.4-8.6-2.8-11.7c-0.2,2.8-0.4,5.6-0.7,8.4c-0.3,2.8-0.6,5.5-1,8.3l-4.4,32.1h-18.8l11.5-74.3h20.1l11.2,38.3
			c0.1,0.3,0.2,0.7,0.4,1.3c1.1,3.4,1.7,6.3,2,8.8c0.1-1.3,0.4-2.8,0.8-4.4c0.4-1.6,0.9-3.5,1.5-5.8l11.3-38.2h20.1L-2707.8,569.8
			L-2707.8,569.8z"/>
		<path class="st3" d="M-2696.9,569.8v-74.3h20.3v57h25.2v17.4H-2696.9L-2696.9,569.8z"/>
	</g>
	<g transform="matrix(.75567 0 0 .75567 -643.58 557.84)">
		<path class="st3" d="M-2913.3-263.6v22.5l-76.1,31.3l76.1,31v22.6l-105-43.3v-20.8C-3018.3-220.2-2913.3-263.6-2913.3-263.6z"/>
		<path class="st3" d="M-2889.8-138.5l63.9-150.4h19.7l-63.7,150.4H-2889.8z"/>
		<path class="st3" d="M-2782.7-263.6l105,43.4v20.8l-105,43.3v-22.6l76.1-31l-76.1-31.3C-2782.7-241.1-2782.7-263.6-2782.7-263.6z"
			/>
	</g>
</g>
</svg>
