<?xml version="1.0" encoding="utf-8"?>
<!-- Generator: Adobe Illustrator 24.0.1, SVG Export Plug-In . SVG Version: 6.00 Build 0)  -->
<svg version="1.1" id="Layer_1" xmlns="http://www.w3.org/2000/svg" xmlns:xlink="http://www.w3.org/1999/xlink" x="0px" y="0px"
	 viewBox="0 0 182.1 234.5" style="enable-background:new 0 0 182.1 234.5;" xml:space="preserve">
<style type="text/css">
	.st0{fill-rule:evenodd;clip-rule:evenodd;fill:#5C2B21;}
	.st1{fill-rule:evenodd;clip-rule:evenodd;fill:#D87825;}
	.st2{fill:#FFFFFF;}
	.st3{fill-rule:evenodd;clip-rule:evenodd;fill:url(#SVGID_1_);}
</style>
<g transform="matrix(.47195 0 0 .47195 571.77 458.84)">
	<path class="st0" d="M-1211.5-636.4v-299.5c0-20.1,16.3-36.3,36.3-36.3h199.8l149.7,149.7V-606h-385.8L-1211.5-636.4L-1211.5-636.4
		z"/>
	<g transform="matrix(1 0 0 .87323 -2.0464e-12 160.45)">
		<path class="st1" d="M-825.7-877.7v116c0,18.6-16.3,33.7-36.3,33.7h-313.2c-20.1,0-36.3-15.1-36.3-33.7v-116L-825.7-877.7
			L-825.7-877.7z"/>
	</g>
	<g transform="matrix(1.1003 0 0 1.1003 -231.13 -63.928)">
		<path class="st2" d="M-755.5-589.6h35.4l-13.3-43c-0.4-1.3-1-3.4-1.7-6.3c-0.7-2.9-1.6-6.7-2.8-11.2c-0.8,3.2-1.5,6.3-2.3,9.2
			c-0.7,2.9-1.5,5.7-2.3,8.4L-755.5-589.6L-755.5-589.6z M-805.3-540.9l45-130.5h44.6l45.1,130.5H-706l-6.6-23.4h-50.5l-6.8,23.4
			H-805.3L-805.3-540.9z"/>
		<path class="st2" d="M-661.1-659c0-4.8,1.7-8.9,5.1-12.3s7.5-5.1,12.3-5.1c5,0,9.2,1.7,12.5,5c3.4,3.3,5,7.5,5,12.4
			c0,4.9-1.7,9.1-5.1,12.6c-3.4,3.4-7.6,5.2-12.4,5.2c-4.8,0-8.9-1.8-12.3-5.3C-659.3-650-661.1-654.1-661.1-659L-661.1-659z
			 M-659.5-540.9v-90h31.8v90H-659.5z"/>
	</g>
	<g transform="translate(3.2597 -1.5916e-12)">
		
			<linearGradient id="SVGID_1_" gradientUnits="userSpaceOnUse" x1="-1653.7662" y1="163.578" x2="-1652.7662" y2="163.578" gradientTransform="matrix(63.0654 62.0459 62.0459 -63.0654 93214.1953 112065.5938)">
			<stop  offset="0" style="stop-color:#212121;stop-opacity:0.6157"/>
			<stop  offset="1" style="stop-color:#4D4D4D;stop-opacity:0"/>
		</linearGradient>
		<path class="st3" d="M-978.7-972.2L-978.7-972.2l149.8,149.7v125.2c-1.1,0.5-1.9,0.5-2.7-0.2c-7.1-7.1-140.4-131.2-140.4-141.2
			C-972-882.8-978.6-971.2-978.7-972.2L-978.7-972.2z"/>
	</g>
	<g transform="translate(3.2597 -1.5348e-12)">
		<path class="st1" d="M-978.7-972.2L-978.7-972.2l149.8,149.7h-112c-10,0-19.6-4-26.7-11.1c-7.1-7.1-11.1-16.7-11.1-26.7
			L-978.7-972.2L-978.7-972.2z"/>
	</g>
	<g transform="translate(0 44.289)">
		<path class="st2" d="M-1047.2-578.1h20.2l-7.6-24.5c-0.2-0.7-0.6-1.9-1-3.6c-0.4-1.7-0.9-3.8-1.6-6.4c-0.4,1.8-0.9,3.6-1.3,5.2
			c-0.4,1.7-0.9,3.2-1.3,4.8L-1047.2-578.1L-1047.2-578.1z M-1075.6-550.3l25.6-74.3h25.4l25.7,74.3h-20.2l-3.8-13.3h-28.8
			l-3.9,13.3H-1075.6L-1075.6-550.3z"/>
		<rect x="-991.3" y="-624.7" class="st2" width="20.5" height="74.3"/>
	</g>
</g>
</svg>
