<?xml version="1.0" encoding="utf-8"?>
<!-- Generator: Adobe Illustrator 24.0.1, SVG Export Plug-In . SVG Version: 6.00 Build 0)  -->
<svg version="1.1" id="Layer_1" xmlns="http://www.w3.org/2000/svg" xmlns:xlink="http://www.w3.org/1999/xlink" x="0px" y="0px"
	 viewBox="0 0 182.1 234.5" style="enable-background:new 0 0 182.1 234.5;" xml:space="preserve">
<style type="text/css">
	.st0{fill-rule:evenodd;clip-rule:evenodd;fill:#0692C1;}
	.st1{fill-rule:evenodd;clip-rule:evenodd;fill:#0A729B;}
	.st2{fill-rule:evenodd;clip-rule:evenodd;fill:url(#SVGID_1_);}
	.st3{fill:#FFFFFF;}
</style>
<g transform="matrix(.47195 0 0 .47195 1819.9 -69.791)">
	<path class="st0" d="M-3856.1,483.7V184.2c0-20.1,16.3-36.3,36.3-36.3h199.8l149.7,149.7v216.5h-385.8L-3856.1,483.7L-3856.1,483.7
		z"/>
	<g transform="matrix(1 0 0 .87323 -2.0464e-12 160.45)">
		<path class="st1" d="M-3470.3,405v116c0,18.6-16.3,33.7-36.3,33.7h-313.2c-20.1,0-36.3-15.1-36.3-33.7V405L-3470.3,405
			L-3470.3,405z"/>
	</g>
	<g transform="translate(3.2597 -1.5916e-12)">
		
			<linearGradient id="SVGID_1_" gradientUnits="userSpaceOnUse" x1="-4304.356" y1="1269.2825" x2="-4303.356" y2="1269.2825" gradientTransform="matrix(63.0654 62.0459 62.0459 -63.0654 189125.4688 347375.6875)">
			<stop  offset="0" style="stop-color:#212121;stop-opacity:0.6157"/>
			<stop  offset="1" style="stop-color:#4D4D4D;stop-opacity:0"/>
		</linearGradient>
		<path class="st2" d="M-3623.3,147.9L-3623.3,147.9l149.8,149.7v125.2c-1.1,0.5-1.9,0.5-2.7-0.2c-7.1-7.1-140.4-131.2-140.4-141.2
			C-3616.6,237.3-3623.2,148.9-3623.3,147.9L-3623.3,147.9z"/>
	</g>
	<g transform="translate(3.2597 -1.5348e-12)">
		<path class="st1" d="M-3623.3,147.9L-3623.3,147.9l149.8,149.7h-112c-10,0-19.6-4-26.7-11.1c-7.1-7.1-11.1-16.7-11.1-26.7
			L-3623.3,147.9L-3623.3,147.9z"/>
	</g>
	<g transform="translate(0 44.289)">
		<path class="st3" d="M-3694.5,498.3v22.1c-2.8-3.1-5.5-5.3-8.3-6.8c-2.8-1.4-5.7-2.2-8.9-2.2c-5.8,0-10.5,2-14.1,6
			c-3.6,4-5.4,9.2-5.4,15.6c0,6,1.8,10.9,5.5,14.8c3.7,3.9,8.4,5.9,14,5.9c3.1,0,6.1-0.7,8.9-2.2c2.8-1.4,5.5-3.7,8.3-6.8V567
			c-3.2,1.6-6.4,2.7-9.6,3.5c-3.2,0.8-6.4,1.2-9.6,1.2c-4.1,0-7.8-0.5-11.2-1.4c-3.4-1-6.6-2.4-9.5-4.4c-5.6-3.7-9.8-8.4-12.7-14.1
			c-2.9-5.7-4.4-12-4.4-19.1c0-5.7,0.9-10.9,2.8-15.5c1.8-4.7,4.6-8.9,8.4-12.7c3.5-3.6,7.5-6.3,11.9-8.1c4.4-1.8,9.3-2.7,14.8-2.7
			c3.2,0,6.5,0.4,9.6,1.2C-3700.9,495.6-3697.7,496.8-3694.5,498.3L-3694.5,498.3z"/>
		<path class="st3" d="M-3679.8,545.7c3,3.4,6,6,8.9,7.7s5.8,2.5,8.8,2.5c2.7,0,4.9-0.7,6.7-2.2c1.7-1.5,2.6-3.3,2.6-5.5
			c0-2.5-0.8-4.4-2.3-5.7c-1.5-1.3-4.9-2.7-10.2-4.1c-7.3-2-12.4-4.5-15.4-7.7c-3-3.1-4.5-7.5-4.5-13c0-7.1,2.4-12.9,7.1-17.4
			c4.8-4.5,10.9-6.7,18.5-6.7c4.1,0,8,0.6,11.7,1.7s7.2,2.8,10.4,5l-6.3,14.6c-2.3-2-4.7-3.4-7.1-4.4c-2.4-1-4.8-1.5-7.2-1.5
			c-2.4,0-4.4,0.6-5.9,1.8c-1.5,1.2-2.3,2.7-2.3,4.5c0,1.9,0.7,3.4,2,4.5c1.3,1.1,3.9,2.2,7.7,3.2l0.9,0.3
			c8.3,2.2,13.7,4.7,16.3,7.4c1.8,1.8,3.1,4,4,6.6c0.9,2.6,1.4,5.4,1.4,8.5c0,7.9-2.6,14.2-7.8,19c-5.2,4.8-12.1,7.2-20.7,7.2
			c-5.2,0-9.9-0.9-14.1-2.6c-4.2-1.8-8.3-4.5-12.3-8.3L-3679.8,545.7L-3679.8,545.7z"/>
		<path class="st3" d="M-3619.3,545.7c3,3.4,6,6,8.9,7.7s5.9,2.5,8.8,2.5c2.7,0,4.9-0.7,6.7-2.2c1.7-1.5,2.6-3.3,2.6-5.5
			c0-2.5-0.8-4.4-2.3-5.7c-1.5-1.3-4.9-2.7-10.2-4.1c-7.3-2-12.4-4.5-15.4-7.7c-3-3.1-4.5-7.5-4.5-13c0-7.1,2.4-12.9,7.1-17.4
			c4.8-4.5,10.9-6.7,18.5-6.7c4.1,0,8,0.6,11.7,1.7c3.7,1.1,7.2,2.8,10.4,5l-6.4,14.6c-2.3-2-4.7-3.4-7.1-4.4
			c-2.4-1-4.8-1.5-7.2-1.5c-2.4,0-4.4,0.6-5.9,1.8c-1.5,1.2-2.3,2.7-2.3,4.5c0,1.9,0.7,3.4,2,4.5c1.3,1.1,3.9,2.2,7.7,3.2l0.9,0.3
			c8.3,2.2,13.7,4.7,16.3,7.4c1.8,1.8,3.1,4,4,6.6c0.9,2.6,1.4,5.4,1.4,8.5c0,7.9-2.6,14.2-7.8,19c-5.2,4.8-12.1,7.2-20.7,7.2
			c-5.2,0-9.9-0.9-14.1-2.6s-8.3-4.5-12.3-8.3L-3619.3,545.7L-3619.3,545.7z"/>
	</g>
	<g transform="matrix(.9546 0 0 .9546 -1330 511.72)">
		<path class="st3" d="M-2487.2-205.1v21.6c-0.4,0-1,0-1.9-0.1c-0.8-0.1-1.4-0.1-1.8-0.1c-5.8,0-9.7,1.1-11.8,3.2c-2,2.1-3,6.5-3,13
			v21.4c0,8.3-1.4,14.3-4.1,17.8c-2.7,3.6-7.7,6.1-14.8,7.6c7.2,1.4,12.1,3.9,14.8,7.4c2.7,3.5,4.1,9.4,4.1,17.8V-74
			c0,6.5,1,10.8,3,12.9c2,2.1,5.9,3.1,11.6,3.1c0.4,0,1.1,0,1.9-0.1c0.9-0.1,1.5-0.1,1.9-0.1v21.6c-0.9,0-2.1,0-3.7,0.1
			c-1.6,0.1-2.8,0.1-3.6,0.1c-6.4,0-11.8-0.4-16-1.1c-4.3-0.7-7.8-1.8-10.7-3.3c-3.5-1.9-6-4.5-7.4-7.9c-1.4-3.4-2.1-9.1-2.1-17.1
			v-22.8c0-7.9-1.5-13.5-4.4-16.7c-2.9-3.2-7.9-4.8-15-4.8c-0.2,0-0.7,0-1.5,0.1c-0.8,0.1-1.3,0.1-1.7,0.1v-21.6
			c0.4,0,0.9,0,1.6,0.1c0.7,0.1,1.2,0.1,1.6,0.1c7,0,12-1.6,15-4.9c3-3.3,4.5-8.9,4.5-16.8v-22.6c0-8.1,0.7-13.8,2.1-17.2
			c1.4-3.4,3.9-6.1,7.3-8c2.9-1.5,6.4-2.6,10.8-3.3c4.3-0.7,9.7-1.1,16.1-1.1c0.7,0,1.9,0,3.4,0.1
			C-2489.3-205.1-2488.1-205.1-2487.2-205.1z"/>
		<path class="st3" d="M-2453.8-144.6c0-5.1,1.7-9.3,5.2-12.7c3.5-3.4,7.7-5.1,12.8-5.1c5.1,0,9.4,1.7,12.8,5.1
			c3.4,3.4,5.1,7.6,5.1,12.7s-1.7,9.4-5.2,12.9c-3.4,3.5-7.7,5.2-12.7,5.2c-5,0-9.2-1.8-12.7-5.3
			C-2452.1-135.3-2453.8-139.6-2453.8-144.6L-2453.8-144.6z M-2451.8-103h33.2l-27.5,55.9h-24.7L-2451.8-103z"/>
		<path class="st3" d="M-2401.2-205.1c0.9,0,2.1,0,3.7-0.1c1.6-0.1,2.7-0.1,3.4-0.1c6.4,0,11.8,0.4,16,1.1c4.3,0.7,7.9,1.8,10.8,3.3
			c3.4,1.9,5.9,4.6,7.3,8c1.5,3.4,2.2,9.2,2.2,17.2v22.6c0,7.9,1.5,13.6,4.4,16.8c2.9,3.3,7.9,4.9,15,4.9c0.4,0,0.9,0,1.6-0.1
			c0.7-0.1,1.3-0.1,1.6-0.1v21.6c-0.4,0-0.9,0-1.6-0.1c-0.7-0.1-1.3-0.1-1.6-0.1c-7.1,0-12.1,1.6-15,4.9c-2.9,3.3-4.4,8.8-4.4,16.6
			v22.8c0,8.1-0.7,13.9-2.2,17.3c-1.5,3.4-3.9,6-7.3,7.9c-2.7,1.4-6,2.5-10.1,3.2c-4.1,0.7-9.3,1-15.8,1c-0.8,0-2.1,0-3.9-0.1
			c-1.8-0.1-3.1-0.1-4.1-0.1v-21.6c0.5,0,1.2,0,2,0.1c0.8,0.1,1.4,0.1,1.8,0.1c5.8,0,9.6-1,11.6-3.1c2-2,3-6.4,3-12.9v-21.5
			c0-8.3,1.4-14.2,4.1-17.8c2.7-3.5,7.6-6,14.7-7.4c-7.1-1.5-12-4-14.8-7.5c-2.7-3.5-4.1-9.5-4.1-17.9v-21.4c0-6.6-1-10.9-3-13
			c-2-2.1-5.8-3.2-11.3-3.2c-0.4,0-1.1,0-2,0.1c-0.9,0.1-1.7,0.1-2.2,0.1L-2401.2-205.1L-2401.2-205.1z"/>
	</g>
</g>
</svg>
