<?xml version="1.0" encoding="utf-8"?>
<!-- Generator: Adobe Illustrator 24.0.1, SVG Export Plug-In . SVG Version: 6.00 Build 0)  -->
<svg version="1.1" id="Layer_1" xmlns="http://www.w3.org/2000/svg" xmlns:xlink="http://www.w3.org/1999/xlink" x="0px" y="0px"
	 viewBox="0 0 182.1 234.5" style="enable-background:new 0 0 182.1 234.5;" xml:space="preserve">
<style type="text/css">
	.st0{fill-rule:evenodd;clip-rule:evenodd;fill:#2243C0;}
	.st1{fill-rule:evenodd;clip-rule:evenodd;fill:#2322A9;}
	.st2{fill-rule:evenodd;clip-rule:evenodd;fill:url(#SVGID_1_);}
	.st3{fill:#FFFFFF;}
</style>
<g transform="matrix(.47195 0 0 .47195 152.4 -69.791)">
	<path class="st0" d="M-322.9,483.7V184.2c0-20.1,16.3-36.3,36.3-36.3h199.8L62.9,297.6v216.5h-385.8L-322.9,483.7L-322.9,483.7z"/>
	<g transform="matrix(1 0 0 .87323 -2.0464e-12 160.45)">
		<path class="st1" d="M62.9,405v116c0,18.6-16.3,33.7-36.3,33.7h-313.2c-20.1,0-36.3-15.1-36.3-33.7V405L62.9,405L62.9,405z"/>
	</g>
	<g transform="translate(3.2597 -1.5916e-12)">
		
			<linearGradient id="SVGID_1_" gradientUnits="userSpaceOnUse" x1="-757.4775" y1="1282.7266" x2="-756.4775" y2="1282.7266" gradientTransform="matrix(63.0654 62.0459 62.0459 -63.0654 -31860.6211 128154.1172)">
			<stop  offset="0" style="stop-color:#212121;stop-opacity:0.6157"/>
			<stop  offset="1" style="stop-color:#4D4D4D;stop-opacity:0"/>
		</linearGradient>
		<path class="st2" d="M-90.1,147.9L-90.1,147.9L59.7,297.6v125.2c-1.1,0.5-1.9,0.5-2.7-0.2c-7.1-7.1-140.4-131.2-140.4-141.2
			C-83.4,237.3-90,148.9-90.1,147.9L-90.1,147.9z"/>
	</g>
	<g transform="translate(3.2597 -1.5348e-12)">
		<path class="st1" d="M-90.1,147.9L-90.1,147.9L59.7,297.6h-112c-10,0-19.6-4-26.7-11.1c-7.1-7.1-11.1-16.7-11.1-26.7L-90.1,147.9
			L-90.1,147.9z"/>
	</g>
	<g transform="translate(0 44.289)">
		<path class="st3" d="M-206.1,569.8h-19v-74.3h21.2c8.3,0,14.1,0.4,17.5,1.2c3.4,0.8,6.2,2.2,8.5,4.2c2.7,2.3,4.8,5.1,6.3,8.5
			c1.4,3.4,2.2,7.2,2.2,11.3c0,4.4-0.7,8.3-2.1,11.7c-1.4,3.4-3.5,6.1-6.3,8.3c-2.1,1.6-4.6,2.8-7.4,3.5c-2.8,0.7-7.4,1.1-13.7,1.1
			h-7.1L-206.1,569.8L-206.1,569.8z M-206.1,528.9h3.9c4.9,0,8.3-0.7,10.2-2c1.9-1.3,2.9-3.6,2.9-6.8c0-3.1-0.9-5.3-2.8-6.7
			c-1.9-1.3-5.2-2-10.1-2h-4.1V528.9z"/>
		<path class="st3" d="M-155.9,545.7c3,3.4,6,6,8.9,7.7c2.9,1.7,5.8,2.5,8.8,2.5c2.7,0,4.9-0.7,6.7-2.2c1.7-1.5,2.6-3.3,2.6-5.5
			c0-2.5-0.8-4.4-2.3-5.7c-1.5-1.3-4.9-2.7-10.2-4.1c-7.3-2-12.4-4.5-15.4-7.7c-3-3.1-4.5-7.5-4.5-13c0-7.1,2.4-12.9,7.1-17.4
			c4.8-4.5,10.9-6.7,18.5-6.7c4.1,0,8,0.6,11.7,1.7c3.7,1.1,7.2,2.8,10.4,5l-6.4,14.6c-2.3-2-4.7-3.4-7.1-4.4
			c-2.4-1-4.8-1.5-7.2-1.5c-2.4,0-4.4,0.6-5.9,1.8c-1.5,1.2-2.3,2.7-2.3,4.5c0,1.9,0.7,3.4,2,4.5c1.3,1.1,3.9,2.2,7.7,3.2l0.9,0.3
			c8.3,2.2,13.7,4.7,16.3,7.4c1.8,1.8,3.1,4,4,6.6c0.9,2.6,1.4,5.4,1.4,8.5c0,7.9-2.6,14.2-7.8,19c-5.2,4.8-12.1,7.2-20.7,7.2
			c-5.2,0-9.9-0.9-14.1-2.6s-8.3-4.5-12.3-8.3L-155.9,545.7L-155.9,545.7z"/>
		<path class="st3" d="M-98.7,569.8v-74.3h15.5c11.5,0,19.7,0.5,24.5,1.6s9,2.9,12.6,5.4c4.7,3.3,8.3,7.5,10.7,12.6
			c2.4,5.1,3.7,11,3.7,17.5s-1.2,12.4-3.7,17.5c-2.4,5.1-6,9.3-10.7,12.6c-3.6,2.5-7.7,4.3-12.3,5.4c-4.6,1.1-11.8,1.6-21.4,1.6
			L-98.7,569.8L-98.7,569.8z M-78.7,553.1h3.4c8,0,13.8-1.6,17.4-4.9c3.7-3.3,5.5-8.5,5.5-15.6s-1.8-12.3-5.5-15.6
			c-3.7-3.3-9.5-5-17.4-5h-3.4V553.1z"/>
	</g>
	<g transform="matrix(1.1104 0 0 1.1104 162.22 510.74)">
		<path class="st3" d="M-322.2-39.5h-33.3V-170h37.2c14.6,0,24.8,0.7,30.7,2.1c5.9,1.4,10.9,3.9,15,7.3c4.8,4,8.5,9,11,14.9
			c2.5,6,3.8,12.6,3.8,19.9c0,7.8-1.2,14.6-3.7,20.5c-2.5,5.9-6.2,10.8-11.1,14.6c-3.7,2.9-8,4.9-13,6.1c-5,1.2-13,1.9-24,1.9h-12.5
			V-39.5L-322.2-39.5z M-322.2-111.3h6.8c8.6,0,14.5-1.2,17.9-3.5c3.4-2.3,5.1-6.3,5.1-12c0-5.5-1.7-9.4-5-11.7
			c-3.3-2.3-9.2-3.5-17.6-3.5h-7.1C-322.2-141.9-322.2-111.3-322.2-111.3z"/>
		<path class="st3" d="M-250.5-47l6.6-24.2c4.6,4,9.7,7.1,15.3,9.3c5.6,2.2,11.2,3.3,16.8,3.3c4,0,7-0.6,9.1-1.9
			c2.1-1.3,3.1-3.1,3.1-5.6c0-4-4.2-7-12.6-8.9c-2.7-0.7-4.9-1.2-6.6-1.7c-9.5-2.6-16.4-6-20.7-10.3c-4.3-4.2-6.5-9.8-6.5-16.5
			c0-8.7,3.3-15.7,9.8-20.9c6.6-5.2,15.5-7.8,26.7-7.8c5.8,0,11.6,0.7,17.6,2c6,1.3,12.1,3.4,18.3,6.2l-6.6,21.8
			c-4.2-2.9-8.5-5-12.8-6.5c-4.3-1.5-8.7-2.2-13-2.2c-3.6,0-6.4,0.6-8.2,1.7c-1.8,1.1-2.8,2.8-2.8,4.9c0,3.2,4.2,5.9,12.5,8.1
			c1.9,0.5,3.3,0.9,4.3,1.2c11,3.1,18.6,6.8,23,11.1c4.3,4.2,6.5,10,6.5,17.2c0,9.2-3.5,16.7-10.6,22.3c-7.1,5.7-16.4,8.5-28.1,8.5
			c-7.9,0-15.2-0.9-22-2.7C-238.2-40.6-244.6-43.3-250.5-47L-250.5-47z"/>
	</g>
</g>
</svg>
